<mxfile host="65bd71144e" scale="4" border="0">
    <diagram id="RVRvGXG0RCsftaXjRqcX" name="Page-1">
        <mxGraphModel dx="1377" dy="2053" grid="1" gridSize="10" guides="1" tooltips="1" connect="1" arrows="1" fold="1" page="1" pageScale="1" pageWidth="827" pageHeight="1169" math="0" shadow="0">
            <root>
                <mxCell id="0"/>
                <mxCell id="1" parent="0"/>
                <mxCell id="iawwBjDpLsOtYFc2O_PW-2" value="" style="endArrow=none;dashed=1;html=1;startArrow=none;labelBackgroundColor=none;" parent="1" source="iawwBjDpLsOtYFc2O_PW-12" edge="1">
                    <mxGeometry width="50" height="50" relative="1" as="geometry">
                        <mxPoint x="160" y="400" as="sourcePoint"/>
                        <mxPoint x="160" y="110" as="targetPoint"/>
                    </mxGeometry>
                </mxCell>
                <mxCell id="iawwBjDpLsOtYFc2O_PW-3" value="" style="endArrow=none;dashed=1;html=1;labelBackgroundColor=none;" parent="1" edge="1">
                    <mxGeometry width="50" height="50" relative="1" as="geometry">
                        <mxPoint x="320" y="540" as="sourcePoint"/>
                        <mxPoint x="319.9999999999999" y="80" as="targetPoint"/>
                    </mxGeometry>
                </mxCell>
                <mxCell id="iawwBjDpLsOtYFc2O_PW-4" value="" style="endArrow=none;dashed=1;html=1;startArrow=none;labelBackgroundColor=none;" parent="1" edge="1">
                    <mxGeometry width="50" height="50" relative="1" as="geometry">
                        <mxPoint x="480" y="540" as="sourcePoint"/>
                        <mxPoint x="479.9999999999999" y="80" as="targetPoint"/>
                    </mxGeometry>
                </mxCell>
                <mxCell id="iawwBjDpLsOtYFc2O_PW-6" value="Администратор" style="shape=umlActor;verticalLabelPosition=bottom;verticalAlign=top;html=1;outlineConnect=0;labelBackgroundColor=none;fillColor=none;" parent="1" vertex="1">
                    <mxGeometry x="145" y="20" width="30" height="60" as="geometry"/>
                </mxCell>
                <mxCell id="iawwBjDpLsOtYFc2O_PW-7" value="GatewayService" style="rounded=0;whiteSpace=wrap;html=1;labelBackgroundColor=none;fillColor=none;" parent="1" vertex="1">
                    <mxGeometry x="260" y="20" width="120" height="60" as="geometry"/>
                </mxCell>
                <mxCell id="iawwBjDpLsOtYFc2O_PW-8" value="AuthService" style="rounded=0;whiteSpace=wrap;html=1;labelBackgroundColor=none;fillColor=none;" parent="1" vertex="1">
                    <mxGeometry x="420" y="20" width="120" height="60" as="geometry"/>
                </mxCell>
                <mxCell id="iawwBjDpLsOtYFc2O_PW-10" value="" style="rounded=0;whiteSpace=wrap;html=1;labelBackgroundColor=none;" parent="1" vertex="1">
                    <mxGeometry x="310" y="140" width="20" height="380" as="geometry"/>
                </mxCell>
                <mxCell id="iawwBjDpLsOtYFc2O_PW-12" value="" style="rounded=0;whiteSpace=wrap;html=1;labelBackgroundColor=none;" parent="1" vertex="1">
                    <mxGeometry x="150" y="140" width="20" height="380" as="geometry"/>
                </mxCell>
                <mxCell id="iawwBjDpLsOtYFc2O_PW-13" value="" style="endArrow=none;dashed=1;html=1;labelBackgroundColor=none;" parent="1" target="iawwBjDpLsOtYFc2O_PW-12" edge="1">
                    <mxGeometry width="50" height="50" relative="1" as="geometry">
                        <mxPoint x="160" y="540" as="sourcePoint"/>
                        <mxPoint x="160" y="110" as="targetPoint"/>
                    </mxGeometry>
                </mxCell>
                <mxCell id="iawwBjDpLsOtYFc2O_PW-15" value="" style="endArrow=classic;html=1;labelBackgroundColor=none;" parent="1" edge="1">
                    <mxGeometry width="50" height="50" relative="1" as="geometry">
                        <mxPoint x="170" y="160" as="sourcePoint"/>
                        <mxPoint x="310" y="160" as="targetPoint"/>
                    </mxGeometry>
                </mxCell>
                <mxCell id="iawwBjDpLsOtYFc2O_PW-16" value="Запрос на&lt;br&gt;возврат книги" style="edgeLabel;html=1;align=center;verticalAlign=middle;resizable=0;points=[];labelBackgroundColor=none;" parent="iawwBjDpLsOtYFc2O_PW-15" vertex="1" connectable="0">
                    <mxGeometry x="-0.2425" y="1" relative="1" as="geometry">
                        <mxPoint x="17" y="-19" as="offset"/>
                    </mxGeometry>
                </mxCell>
                <mxCell id="iawwBjDpLsOtYFc2O_PW-17" value="" style="endArrow=classic;html=1;labelBackgroundColor=none;" parent="1" edge="1">
                    <mxGeometry width="50" height="50" relative="1" as="geometry">
                        <mxPoint x="330" y="160" as="sourcePoint"/>
                        <mxPoint x="470" y="160" as="targetPoint"/>
                    </mxGeometry>
                </mxCell>
                <mxCell id="iawwBjDpLsOtYFc2O_PW-18" value="Проверка токена&lt;br&gt;авторизации" style="edgeLabel;html=1;align=center;verticalAlign=middle;resizable=0;points=[];labelBackgroundColor=none;" parent="iawwBjDpLsOtYFc2O_PW-17" vertex="1" connectable="0">
                    <mxGeometry x="-0.2425" y="1" relative="1" as="geometry">
                        <mxPoint x="17" y="-19" as="offset"/>
                    </mxGeometry>
                </mxCell>
                <mxCell id="iawwBjDpLsOtYFc2O_PW-19" value="" style="rounded=0;whiteSpace=wrap;html=1;labelBackgroundColor=none;" parent="1" vertex="1">
                    <mxGeometry x="470" y="140" width="20" height="80" as="geometry"/>
                </mxCell>
                <mxCell id="iawwBjDpLsOtYFc2O_PW-20" value="" style="endArrow=none;dashed=1;html=1;startArrow=open;startFill=0;labelBackgroundColor=none;" parent="1" edge="1">
                    <mxGeometry width="50" height="50" relative="1" as="geometry">
                        <mxPoint x="330" y="199.42999999999998" as="sourcePoint"/>
                        <mxPoint x="470" y="199.42999999999998" as="targetPoint"/>
                    </mxGeometry>
                </mxCell>
                <mxCell id="iawwBjDpLsOtYFc2O_PW-21" value="Результат проверки&lt;br&gt;токена" style="edgeLabel;html=1;align=center;verticalAlign=middle;resizable=0;points=[];labelBackgroundColor=none;" parent="iawwBjDpLsOtYFc2O_PW-20" vertex="1" connectable="0">
                    <mxGeometry x="-0.5429" y="-1" relative="1" as="geometry">
                        <mxPoint x="38" y="-21" as="offset"/>
                    </mxGeometry>
                </mxCell>
                <mxCell id="iawwBjDpLsOtYFc2O_PW-22" value="" style="endArrow=classic;html=1;labelBackgroundColor=none;" parent="1" edge="1">
                    <mxGeometry width="50" height="50" relative="1" as="geometry">
                        <mxPoint x="330" y="260" as="sourcePoint"/>
                        <mxPoint x="630" y="260" as="targetPoint"/>
                    </mxGeometry>
                </mxCell>
                <mxCell id="iawwBjDpLsOtYFc2O_PW-23" value="Возврат книги" style="edgeLabel;html=1;align=center;verticalAlign=middle;resizable=0;points=[];labelBackgroundColor=none;" parent="iawwBjDpLsOtYFc2O_PW-22" vertex="1" connectable="0">
                    <mxGeometry x="-0.2425" y="1" relative="1" as="geometry">
                        <mxPoint x="37" y="-9" as="offset"/>
                    </mxGeometry>
                </mxCell>
                <mxCell id="iawwBjDpLsOtYFc2O_PW-27" value="" style="endArrow=none;dashed=1;html=1;startArrow=open;startFill=0;labelBackgroundColor=none;" parent="1" edge="1">
                    <mxGeometry width="50" height="50" relative="1" as="geometry">
                        <mxPoint x="330" y="500" as="sourcePoint"/>
                        <mxPoint x="630" y="500" as="targetPoint"/>
                    </mxGeometry>
                </mxCell>
                <mxCell id="iawwBjDpLsOtYFc2O_PW-28" value="Результат возврата книги" style="edgeLabel;html=1;align=center;verticalAlign=middle;resizable=0;points=[];labelBackgroundColor=none;" parent="iawwBjDpLsOtYFc2O_PW-27" vertex="1" connectable="0">
                    <mxGeometry x="-0.5429" y="-1" relative="1" as="geometry">
                        <mxPoint x="82" y="-11" as="offset"/>
                    </mxGeometry>
                </mxCell>
                <mxCell id="iawwBjDpLsOtYFc2O_PW-30" value="" style="endArrow=none;dashed=1;html=1;startArrow=open;startFill=0;labelBackgroundColor=none;" parent="1" edge="1">
                    <mxGeometry width="50" height="50" relative="1" as="geometry">
                        <mxPoint x="170" y="500" as="sourcePoint"/>
                        <mxPoint x="310" y="500" as="targetPoint"/>
                    </mxGeometry>
                </mxCell>
                <mxCell id="iawwBjDpLsOtYFc2O_PW-31" value="Результат запроса" style="edgeLabel;html=1;align=center;verticalAlign=middle;resizable=0;points=[];labelBackgroundColor=none;" parent="iawwBjDpLsOtYFc2O_PW-30" vertex="1" connectable="0">
                    <mxGeometry x="-0.5429" y="-1" relative="1" as="geometry">
                        <mxPoint x="38" y="-11" as="offset"/>
                    </mxGeometry>
                </mxCell>
                <mxCell id="iawwBjDpLsOtYFc2O_PW-32" value="" style="endArrow=none;dashed=1;html=1;startArrow=none;labelBackgroundColor=none;" parent="1" edge="1">
                    <mxGeometry width="50" height="50" relative="1" as="geometry">
                        <mxPoint x="640" y="540" as="sourcePoint"/>
                        <mxPoint x="640" y="80" as="targetPoint"/>
                    </mxGeometry>
                </mxCell>
                <mxCell id="iawwBjDpLsOtYFc2O_PW-33" value="LibraryService" style="rounded=0;whiteSpace=wrap;html=1;labelBackgroundColor=none;fillColor=none;" parent="1" vertex="1">
                    <mxGeometry x="580" y="20" width="120" height="60" as="geometry"/>
                </mxCell>
                <mxCell id="iawwBjDpLsOtYFc2O_PW-34" value="" style="rounded=0;whiteSpace=wrap;html=1;labelBackgroundColor=none;" parent="1" vertex="1">
                    <mxGeometry x="630" y="240" width="20" height="280" as="geometry"/>
                </mxCell>
                <mxCell id="iawwBjDpLsOtYFc2O_PW-35" value="" style="endArrow=classic;html=1;labelBackgroundColor=none;" parent="1" edge="1">
                    <mxGeometry width="50" height="50" relative="1" as="geometry">
                        <mxPoint x="650" y="260" as="sourcePoint"/>
                        <mxPoint x="650" y="300" as="targetPoint"/>
                        <Array as="points">
                            <mxPoint x="680" y="260"/>
                            <mxPoint x="680" y="300"/>
                        </Array>
                    </mxGeometry>
                </mxCell>
                <mxCell id="iawwBjDpLsOtYFc2O_PW-38" value="Закрытие заказа" style="edgeLabel;html=1;align=left;verticalAlign=middle;resizable=0;points=[];labelBackgroundColor=none;" parent="iawwBjDpLsOtYFc2O_PW-35" vertex="1" connectable="0">
                    <mxGeometry x="-0.0619" y="-1" relative="1" as="geometry">
                        <mxPoint x="4" y="3" as="offset"/>
                    </mxGeometry>
                </mxCell>
                <mxCell id="iawwBjDpLsOtYFc2O_PW-36" value="" style="endArrow=none;dashed=1;html=1;startArrow=none;labelBackgroundColor=none;" parent="1" edge="1">
                    <mxGeometry width="50" height="50" relative="1" as="geometry">
                        <mxPoint x="800" y="540" as="sourcePoint"/>
                        <mxPoint x="800" y="80" as="targetPoint"/>
                    </mxGeometry>
                </mxCell>
                <mxCell id="iawwBjDpLsOtYFc2O_PW-37" value="RatingService" style="rounded=0;whiteSpace=wrap;html=1;labelBackgroundColor=none;fillColor=none;" parent="1" vertex="1">
                    <mxGeometry x="740" y="20" width="120" height="60" as="geometry"/>
                </mxCell>
                <mxCell id="iawwBjDpLsOtYFc2O_PW-39" value="" style="endArrow=classic;html=1;labelBackgroundColor=none;" parent="1" edge="1">
                    <mxGeometry width="50" height="50" relative="1" as="geometry">
                        <mxPoint x="650" y="360" as="sourcePoint"/>
                        <mxPoint x="790" y="360" as="targetPoint"/>
                    </mxGeometry>
                </mxCell>
                <mxCell id="iawwBjDpLsOtYFc2O_PW-40" value="Изменение&lt;br&gt;читательского&lt;br&gt;рейтинга" style="edgeLabel;html=1;align=center;verticalAlign=middle;resizable=0;points=[];labelBackgroundColor=none;" parent="iawwBjDpLsOtYFc2O_PW-39" vertex="1" connectable="0">
                    <mxGeometry x="-0.2425" y="1" relative="1" as="geometry">
                        <mxPoint x="17" y="-19" as="offset"/>
                    </mxGeometry>
                </mxCell>
                <mxCell id="iawwBjDpLsOtYFc2O_PW-41" value="" style="rounded=0;whiteSpace=wrap;html=1;labelBackgroundColor=none;" parent="1" vertex="1">
                    <mxGeometry x="790" y="340" width="20" height="180" as="geometry"/>
                </mxCell>
                <mxCell id="iawwBjDpLsOtYFc2O_PW-42" value="" style="endArrow=none;dashed=1;html=1;startArrow=open;startFill=0;labelBackgroundColor=none;" parent="1" edge="1">
                    <mxGeometry width="50" height="50" relative="1" as="geometry">
                        <mxPoint x="650" y="499.99999999999994" as="sourcePoint"/>
                        <mxPoint x="790" y="499.99999999999994" as="targetPoint"/>
                    </mxGeometry>
                </mxCell>
                <mxCell id="iawwBjDpLsOtYFc2O_PW-43" value="Результат изменения&lt;br&gt;рейтинга" style="edgeLabel;html=1;align=center;verticalAlign=middle;resizable=0;points=[];labelBackgroundColor=none;" parent="iawwBjDpLsOtYFc2O_PW-42" vertex="1" connectable="0">
                    <mxGeometry x="-0.5429" y="-1" relative="1" as="geometry">
                        <mxPoint x="38" y="-21" as="offset"/>
                    </mxGeometry>
                </mxCell>
                <mxCell id="UBm7TD5s9E1MQBDaXDPz-3" value="ReturnService" style="rounded=0;whiteSpace=wrap;html=1;labelBackgroundColor=none;fillColor=none;" parent="1" vertex="1">
                    <mxGeometry x="900" y="20" width="120" height="60" as="geometry"/>
                </mxCell>
                <mxCell id="UBm7TD5s9E1MQBDaXDPz-4" value="" style="endArrow=none;dashed=1;html=1;startArrow=none;labelBackgroundColor=none;" parent="1" edge="1">
                    <mxGeometry width="50" height="50" relative="1" as="geometry">
                        <mxPoint x="960" y="540" as="sourcePoint"/>
                        <mxPoint x="960" y="80" as="targetPoint"/>
                    </mxGeometry>
                </mxCell>
                <mxCell id="UBm7TD5s9E1MQBDaXDPz-5" value="" style="rounded=0;whiteSpace=wrap;html=1;labelBackgroundColor=none;" parent="1" vertex="1">
                    <mxGeometry x="950" y="440" width="20" height="80" as="geometry"/>
                </mxCell>
                <mxCell id="UBm7TD5s9E1MQBDaXDPz-7" value="" style="endArrow=none;dashed=1;html=1;startArrow=open;startFill=0;labelBackgroundColor=none;" parent="1" edge="1">
                    <mxGeometry width="50" height="50" relative="1" as="geometry">
                        <mxPoint x="810" y="500" as="sourcePoint"/>
                        <mxPoint x="950" y="500" as="targetPoint"/>
                    </mxGeometry>
                </mxCell>
                <mxCell id="UBm7TD5s9E1MQBDaXDPz-8" value="Результат изменения&lt;br&gt;лимита" style="edgeLabel;html=1;align=center;verticalAlign=middle;resizable=0;points=[];labelBackgroundColor=none;" parent="UBm7TD5s9E1MQBDaXDPz-7" vertex="1" connectable="0">
                    <mxGeometry x="-0.5429" y="-1" relative="1" as="geometry">
                        <mxPoint x="38" y="-21" as="offset"/>
                    </mxGeometry>
                </mxCell>
                <mxCell id="UBm7TD5s9E1MQBDaXDPz-9" value="" style="endArrow=classic;html=1;labelBackgroundColor=none;exitX=1;exitY=0.664;exitDx=0;exitDy=0;exitPerimeter=0;" parent="1" edge="1" source="iawwBjDpLsOtYFc2O_PW-41">
                    <mxGeometry width="50" height="50" relative="1" as="geometry">
                        <mxPoint x="820" y="460" as="sourcePoint"/>
                        <mxPoint x="950" y="459.9999999999999" as="targetPoint"/>
                    </mxGeometry>
                </mxCell>
                <mxCell id="UBm7TD5s9E1MQBDaXDPz-10" value="Изменение лимита книг,&lt;br&gt;доступного читателю" style="edgeLabel;html=1;align=center;verticalAlign=middle;resizable=0;points=[];labelBackgroundColor=none;" parent="UBm7TD5s9E1MQBDaXDPz-9" vertex="1" connectable="0">
                    <mxGeometry x="-0.2425" y="1" relative="1" as="geometry">
                        <mxPoint x="17" y="-19" as="offset"/>
                    </mxGeometry>
                </mxCell>
            </root>
        </mxGraphModel>
    </diagram>
</mxfile>